<?xml version="1.0" standalone="no"?>
<!DOCTYPE svg PUBLIC "-//W3C//DTD SVG 20010904//EN"
 "http://www.w3.org/TR/2001/REC-SVG-20010904/DTD/svg10.dtd">
<svg version="1.0" xmlns="http://www.w3.org/2000/svg"
 width="2362.000000pt" height="2362.000000pt" viewBox="0 0 2362.000000 2362.000000"
 preserveAspectRatio="xMidYMid meet">
<metadata>
Created by potrace 1.14, written by Peter Selinger 2001-2017
</metadata>
<g transform="translate(0.000000,2362.000000) scale(0.100000,-0.100000)"
fill="#000000" stroke="none">
<path d="M11249 23186 c-2 -2 -40 -7 -84 -11 -89 -8 -121 -11 -180 -20 -22 -4
-51 -8 -65 -10 -27 -4 -80 -13 -120 -20 -48 -9 -165 -34 -210 -45 -25 -7 -54
-13 -64 -16 -89 -18 -352 -106 -516 -171 -165 -67 -501 -236 -582 -294 -14
-10 -31 -19 -37 -19 -6 0 -11 -4 -11 -10 0 -5 -5 -10 -10 -10 -14 0 -334 -220
-350 -241 -3 -4 -26 -23 -53 -43 -26 -20 -61 -48 -79 -64 -17 -15 -54 -47 -82
-72 -122 -107 -368 -361 -462 -479 -10 -13 -24 -28 -29 -35 -80 -87 -270 -356
-374 -530 -139 -231 -296 -551 -367 -751 -108 -301 -182 -553 -219 -750 -14
-74 -46 -264 -50 -300 -3 -22 -7 -51 -10 -65 -2 -14 -7 -59 -11 -100 -4 -41
-9 -88 -12 -105 -3 -16 -7 -2071 -9 -4565 -2 -4996 -8 -4587 60 -4714 17 -33
60 -89 93 -122 68 -68 114 -93 394 -214 91 -40 188 -82 215 -95 28 -12 95 -41
150 -64 55 -23 118 -50 140 -61 64 -29 134 -60 215 -95 41 -18 102 -44 135
-60 33 -15 80 -35 105 -45 25 -10 77 -32 115 -50 140 -64 155 -70 159 -70 3 0
33 -13 68 -29 35 -16 172 -77 306 -136 134 -58 262 -114 285 -124 23 -11 114
-50 202 -89 165 -72 390 -170 770 -337 121 -53 308 -135 415 -182 107 -47 215
-94 240 -105 25 -11 101 -45 170 -75 69 -30 139 -61 155 -68 30 -14 83 -37
735 -323 201 -88 388 -169 415 -182 28 -12 66 -28 85 -37 120 -52 540 -237
565 -248 17 -8 194 -86 395 -173 201 -88 390 -171 420 -184 30 -14 81 -36 112
-49 42 -17 58 -29 58 -44 1 -11 1 -369 1 -795 0 -690 -4 -949 -16 -1030 -2
-14 -6 -50 -10 -80 -6 -49 -11 -95 -20 -155 -8 -61 -29 -168 -42 -220 -17 -68
-22 -89 -29 -125 -6 -32 -48 -172 -81 -270 -81 -241 -219 -530 -366 -764 -64
-103 -216 -313 -268 -371 -10 -11 -39 -45 -66 -75 -52 -60 -222 -231 -294
-295 -362 -325 -824 -577 -1289 -704 -41 -11 -90 -23 -109 -26 -19 -3 -37 -8
-41 -10 -8 -5 -242 -46 -285 -50 -293 -27 -572 -26 -765 5 -30 5 -80 12 -110
15 -30 4 -58 9 -61 11 -4 2 -24 6 -45 9 -99 15 -349 89 -505 148 -357 137
-824 451 -1159 778 -241 235 -403 486 -506 784 -106 306 -146 665 -100 901 58
300 173 558 355 799 25 33 48 62 51 65 3 3 49 53 103 112 108 118 197 184 309
230 80 32 94 36 203 52 212 31 451 -28 638 -158 84 -59 219 -202 251 -265 101
-198 51 -451 -116 -594 -90 -77 -134 -121 -175 -177 -200 -274 -198 -668 5
-942 198 -269 543 -362 839 -228 82 37 141 79 209 147 72 73 98 111 181 273
86 168 131 285 179 475 4 17 8 32 9 35 2 10 26 175 33 235 9 73 8 327 -2 410
-11 85 -15 116 -21 145 -2 14 -7 39 -10 55 -34 182 -123 431 -213 595 -26 47
-49 90 -51 95 -6 13 -132 199 -140 205 -3 3 -24 28 -46 55 -120 150 -364 357
-542 458 -203 116 -464 207 -663 232 -30 4 -68 9 -85 11 -46 8 -251 7 -335 -1
-245 -22 -518 -113 -733 -242 -169 -101 -321 -238 -527 -473 -36 -41 -68 -77
-71 -80 -14 -12 -168 -231 -212 -302 -100 -162 -215 -410 -275 -593 -24 -71
-62 -201 -67 -224 -2 -9 -10 -46 -19 -84 -9 -37 -18 -82 -21 -100 -3 -17 -7
-43 -10 -57 -35 -188 -41 -594 -11 -745 2 -11 7 -45 10 -75 16 -122 64 -337
108 -480 11 -36 21 -72 23 -80 16 -71 146 -376 211 -496 188 -350 396 -600
809 -974 223 -202 738 -542 1000 -661 39 -17 86 -38 105 -47 19 -9 37 -17 40
-17 3 -1 16 -6 30 -12 221 -95 597 -205 815 -239 28 -4 55 -8 60 -10 23 -5 89
-14 210 -29 211 -26 733 -27 872 -1 10 2 49 7 88 11 38 4 72 8 75 10 3 1 27 6
53 9 43 6 135 23 162 30 6 2 28 6 50 11 59 11 65 13 130 31 33 9 65 17 70 19
47 10 75 19 107 31 20 7 47 15 60 18 31 6 299 106 379 142 110 50 300 145 388
196 46 26 86 48 88 48 2 0 26 16 53 35 27 19 52 35 54 35 12 0 355 246 376
269 3 3 48 42 100 86 138 116 391 371 500 505 25 30 53 63 63 75 32 36 182
237 237 320 219 326 422 737 548 1110 37 109 100 316 106 347 2 13 8 41 14 63
24 93 74 355 87 455 3 25 8 56 10 70 2 14 7 57 11 95 3 39 8 81 9 95 22 172
28 2232 8 2331 -26 128 -107 246 -225 327 -38 26 -386 183 -833 374 -77 34
-165 72 -195 85 -30 14 -68 31 -85 38 -16 7 -50 22 -75 33 -25 11 -191 83
-369 161 -178 78 -364 160 -415 182 -50 23 -104 47 -121 54 -68 30 -375 165
-445 195 -41 18 -98 43 -127 56 -28 13 -54 24 -57 24 -2 0 -33 13 -68 29 -64
29 -171 76 -843 371 -203 89 -403 177 -443 196 -41 19 -75 34 -77 34 -2 0
-173 75 -381 166 -207 91 -398 174 -423 185 -25 11 -59 27 -76 34 -16 8 -102
45 -190 83 -88 38 -180 79 -205 90 -25 11 -194 86 -377 166 -182 80 -351 154
-375 164 -24 11 -97 43 -163 72 -66 28 -139 60 -162 71 -77 34 -127 56 -203
89 -95 41 -201 88 -220 99 -12 7 -14 537 -15 4272 0 2345 3 4305 7 4354 14
162 48 386 79 515 11 47 23 96 25 110 28 149 155 491 265 715 50 103 194 357
221 390 4 5 35 48 67 94 184 261 420 512 676 716 85 68 308 220 390 265 113
63 221 118 296 150 40 18 88 38 104 46 78 34 374 128 445 140 14 3 32 7 40 9
8 2 31 7 50 10 19 3 53 10 75 15 22 5 63 12 90 15 28 4 57 8 65 10 70 19 512
26 670 12 104 -10 375 -57 486 -85 95 -25 339 -106 404 -134 148 -67 228 -107
335 -171 66 -39 125 -75 130 -79 6 -5 33 -23 60 -41 28 -17 55 -35 60 -39 6
-5 64 -48 130 -96 325 -238 590 -514 736 -768 83 -144 181 -386 204 -503 2 -9
8 -36 15 -61 7 -25 14 -56 16 -70 3 -14 9 -47 14 -75 24 -128 34 -367 19 -460
-5 -33 -11 -73 -14 -90 -21 -138 -77 -307 -152 -465 -52 -107 -153 -273 -203
-330 -11 -14 -31 -36 -42 -50 -92 -110 -220 -237 -276 -274 -189 -125 -398
-165 -636 -120 -98 18 -227 73 -328 141 -99 65 -226 194 -266 270 -114 215
-56 468 144 624 123 97 220 245 266 405 29 103 32 313 4 414 -110 403 -477
636 -856 544 -153 -38 -322 -159 -412 -294 -54 -83 -163 -301 -198 -399 -35
-95 -85 -281 -95 -351 -3 -25 -8 -56 -10 -70 -34 -230 -18 -532 41 -780 14
-58 29 -114 33 -125 5 -11 19 -51 31 -90 91 -281 271 -568 499 -795 204 -205
388 -325 686 -451 99 -42 256 -81 415 -104 89 -13 405 -14 455 -2 11 2 40 8
65 12 216 34 459 128 650 252 147 96 233 174 461 419 374 402 660 1042 715
1599 3 39 8 79 10 90 5 22 4 309 0 365 -8 93 -27 245 -42 325 -65 349 -152
614 -299 906 -164 326 -381 609 -671 879 -360 333 -538 465 -945 698 -129 74
-261 137 -434 207 -111 45 -176 67 -390 134 -77 25 -352 87 -424 96 -14 2 -40
6 -58 9 -149 27 -317 39 -589 42 -166 2 -303 2 -305 0z"/>
<path d="M13370 16695 c-128 -26 -249 -96 -308 -179 -30 -42 -64 -126 -59
-148 1 -6 -37 -20 -86 -33 -48 -13 -129 -37 -180 -55 -111 -38 -360 -157 -422
-202 -117 -84 -191 -145 -254 -207 -280 -274 -573 -874 -656 -1346 -2 -16 -7
-41 -10 -55 -3 -14 -9 -50 -15 -80 -10 -52 -13 -70 -25 -137 -11 -63 -58 -340
-60 -358 -2 -11 -5 -36 -8 -55 -23 -140 -47 -292 -52 -330 -3 -25 -10 -70 -15
-100 -5 -30 -12 -75 -15 -100 -8 -57 -14 -98 -20 -130 -3 -14 -7 -43 -10 -65
-2 -22 -6 -49 -9 -60 -2 -11 -7 -47 -11 -80 -4 -32 -8 -66 -10 -75 -4 -19 -13
-92 -19 -150 -8 -76 -16 -153 -22 -205 -2 -27 -7 -68 -10 -90 -2 -22 -7 -60
-10 -85 -2 -25 -9 -70 -14 -100 -5 -30 -12 -72 -16 -94 -3 -21 -7 -46 -9 -55
-1 -9 -6 -36 -11 -61 -4 -25 -8 -47 -9 -50 -1 -3 -5 -27 -10 -55 -5 -27 -10
-52 -10 -55 -1 -3 -5 -25 -9 -50 -59 -340 -245 -721 -476 -974 -135 -148 -306
-290 -466 -386 -100 -61 -266 -141 -349 -169 l-60 -20 67 -29 c190 -86 388
-137 573 -148 447 -28 817 31 1130 181 206 99 383 246 524 435 74 98 179 296
231 435 29 77 30 78 23 30 -9 -67 -9 -316 0 -385 15 -116 19 -137 33 -195 44
-179 106 -334 216 -535 19 -36 109 -174 117 -180 4 -3 18 -21 31 -40 83 -122
350 -398 453 -469 12 -8 31 -24 42 -34 43 -39 234 -163 329 -213 l100 -52 60
30 c304 152 648 449 869 750 194 264 321 552 372 843 19 109 28 378 15 459 -6
43 -6 47 6 31 8 -10 14 -25 14 -32 0 -7 4 -21 9 -31 19 -36 46 -107 43 -111
-2 -2 0 -7 5 -10 9 -7 46 -84 43 -90 -1 -2 2 -7 7 -10 5 -3 20 -26 34 -51 13
-25 27 -47 30 -50 3 -3 19 -25 34 -50 16 -24 33 -50 39 -56 6 -6 26 -29 44
-51 46 -57 89 -100 158 -159 69 -59 158 -124 170 -124 4 0 15 -6 23 -14 22
-19 148 -81 231 -114 14 -5 37 -14 51 -20 26 -10 163 -50 202 -58 63 -14 188
-35 237 -40 30 -3 71 -7 90 -10 41 -5 409 -5 460 0 187 19 364 68 565 156 l50
22 -78 28 c-162 60 -353 166 -516 287 -42 31 -137 118 -211 192 -214 216 -351
429 -457 709 -24 66 -76 250 -87 312 -3 19 -8 46 -11 60 -3 14 -9 50 -15 80
-6 30 -12 64 -14 76 -12 62 -56 336 -61 379 -3 28 -7 64 -10 80 -2 17 -7 59
-10 95 -3 36 -8 79 -10 95 -2 17 -9 73 -15 125 -6 52 -15 120 -20 150 -5 30
-12 75 -15 100 -3 25 -8 56 -10 70 -12 73 -25 160 -30 195 -3 22 -10 65 -15
95 -5 30 -12 73 -15 95 -3 22 -15 96 -26 165 -11 69 -22 136 -24 150 -24 149
-46 280 -50 300 -3 14 -12 66 -21 115 -28 163 -74 389 -90 445 -90 309 -178
521 -311 748 -113 192 -196 307 -297 407 -209 208 -492 366 -823 459 -51 14
-98 26 -106 26 -9 0 -18 20 -26 54 -12 55 -52 125 -93 163 -33 31 -136 91
-178 104 -86 26 -111 30 -200 33 -54 2 -123 -2 -160 -9z m1457 -5447 c-3 -8
-6 -5 -6 6 -1 11 2 17 5 13 3 -3 4 -12 1 -19z"/>
</g>
</svg>
